<?xml version="1.0" encoding="UTF-8"?>
<svg xmlns="http://www.w3.org/2000/svg" xmlns:xlink="http://www.w3.org/1999/xlink" width="208pt" height="208pt" viewBox="0 0 208 208" version="1.1">
<g id="surface5482185">
<path style=" stroke:none;fill-rule:nonzero;fill:rgb(100%,100%,100%);fill-opacity:1;" d="M 169 0 L 39 0 C 17.46875 0 0 17.46875 0 39 L 0 169 C 0 190.53125 17.46875 208 39 208 L 169 208 C 190.53125 208 208 190.53125 208 169 L 208 39 C 208 17.46875 190.53125 0 169 0 Z M 64.3125 176.5625 L 32 176.5625 L 31.8125 79.8125 L 64.125 79.8125 Z M 47.34375 67.15625 L 47.15625 67.15625 C 36.59375 67.15625 29.78125 59.875 29.78125 50.8125 C 29.78125 41.53125 36.8125 34.5 47.5625 34.5 C 58.3125 34.5 64.90625 41.53125 65.125 50.8125 C 65.125 59.875 58.28125 67.15625 47.34375 67.15625 Z M 176.34375 176.5625 L 143.75 176.5625 L 143.75 124 C 143.75 111.28125 140.375 102.625 129 102.625 C 120.3125 102.625 115.625 108.46875 113.375 114.125 C 112.53125 116.15625 112.3125 118.9375 112.3125 121.78125 L 112.3125 176.5625 L 79.5625 176.5625 L 79.375 79.8125 L 112.125 79.8125 L 112.3125 93.46875 C 116.5 87 123.46875 77.84375 140.15625 77.84375 C 160.84375 77.84375 176.3125 91.34375 176.3125 120.375 L 176.3125 176.5625 Z M 176.34375 176.5625 "/>
</g>
</svg>
