<?xml version="1.0" encoding="UTF-8"?>
<svg xmlns="http://www.w3.org/2000/svg" xmlns:xlink="http://www.w3.org/1999/xlink" width="144pt" height="144pt" viewBox="0 0 144 144" version="1.1">
<g id="surface5482060">
<path style=" stroke:none;fill-rule:nonzero;fill:rgb(100%,100%,100%);fill-opacity:1;" d="M 49.5 15 C 30.476562 15 15 30.476562 15 49.5 L 15 94.5 C 15 113.523438 30.476562 129 49.5 129 L 94.5 129 C 113.523438 129 129 113.523438 129 94.5 L 129 49.5 C 129 30.476562 113.523438 15 94.5 15 Z M 102 36 C 105.316406 36 108 38.683594 108 42 C 108 45.3125 105.316406 48 102 48 C 98.683594 48 96 45.3125 96 42 C 96 38.683594 98.683594 36 102 36 Z M 72 42 C 88.542969 42 102 55.457031 102 72 C 102 88.542969 88.542969 102 72 102 C 55.457031 102 42 88.542969 42 72 C 42 55.457031 55.457031 42 72 42 Z M 72 51 C 60.402344 51 51 60.402344 51 72 C 51 83.597656 60.402344 93 72 93 C 83.597656 93 93 83.597656 93 72 C 93 60.402344 83.597656 51 72 51 Z M 72 51 "/>
</g>
</svg>
