<?xml version="1.0" encoding="UTF-8"?>
<svg xmlns="http://www.w3.org/2000/svg" xmlns:xlink="http://www.w3.org/1999/xlink" width="240pt" height="240pt" viewBox="0 0 240 240" version="1.1">
<g id="surface5481592">
<path style=" stroke:none;fill-rule:nonzero;fill:rgb(100%,100%,100%);fill-opacity:1;" d="M 120 0 C 53.730469 0 0 53.730469 0 120 C 0 180.160156 44.320312 229.839844 102.058594 238.519531 L 102.058594 151.800781 L 72.371094 151.800781 L 72.371094 120.261719 L 102.058594 120.261719 L 102.058594 99.269531 C 102.058594 64.519531 118.988281 49.269531 147.871094 49.269531 C 161.699219 49.269531 169.019531 50.300781 172.480469 50.761719 L 172.480469 78.289062 L 152.78125 78.289062 C 140.519531 78.289062 136.238281 89.921875 136.238281 103.019531 L 136.238281 120.261719 L 172.171875 120.261719 L 167.300781 151.800781 L 136.238281 151.800781 L 136.238281 238.769531 C 194.808594 230.828125 240 180.75 240 120 C 240 53.730469 186.269531 0 120 0 Z M 120 0 "/>
</g>
</svg>
