<?xml version="1.0" encoding="UTF-8"?>
<svg xmlns="http://www.w3.org/2000/svg" xmlns:xlink="http://www.w3.org/1999/xlink" width="240pt" height="240pt" viewBox="0 0 240 240" version="1.1">
<g id="surface5492629">
<path style=" stroke:none;fill-rule:nonzero;fill:rgb(100%,100%,100%);fill-opacity:1;" d="M 240 43.007812 C 231.015625 46.992188 221.992188 50 211.992188 51.015625 C 221.992188 45 230 35 233.984375 23.984375 C 223.984375 30 213.984375 33.984375 203.007812 36.015625 C 193.007812 26.015625 180 20 166.015625 20 C 138.984375 20 116.992188 41.992188 116.992188 68.984375 C 116.992188 73.007812 116.992188 76.992188 118.007812 80 C 76.992188 78.007812 41.015625 58.984375 16.992188 28.984375 C 11.992188 36.015625 10 45 10 53.984375 C 10 71.015625 18.984375 86.015625 31.992188 95 C 23.984375 93.984375 16.015625 91.992188 10 88.984375 C 10 88.984375 10 88.984375 10 90 C 10 113.984375 26.992188 133.984375 48.984375 138.007812 C 45 138.984375 41.015625 140 36.015625 140 C 33.007812 140 30 140 26.992188 138.984375 C 33.007812 158.984375 51.015625 173.007812 73.007812 173.007812 C 56.015625 186.015625 35 193.984375 11.992188 193.984375 C 8.007812 193.984375 3.984375 193.984375 0 193.007812 C 21.992188 206.992188 48.007812 215 75 215 C 166.015625 215 215 140 215 75 C 215 73.007812 215 71.015625 215 68.984375 C 225 61.992188 233.007812 53.007812 240 43.007812 "/>
</g>
</svg>
