<svg id="Layer_1" data-name="Layer 1" xmlns="http://www.w3.org/2000/svg" viewBox="0 0 400 76.75"><defs><style>.cls-1{fill:#fff;}</style></defs><path class="cls-1" d="M13.65,6a5.92,5.92,0,0,1,6.12,5.83,6,6,0,0,1-6.12,5.9,6.1,6.1,0,0,1-6.26-5.9A6,6,0,0,1,13.65,6Zm5,47.81c0,2.52-2.3,4.46-5,4.46a4.91,4.91,0,0,1-5-4.46V28.35a4.91,4.91,0,0,1,5-4.46c2.74,0,5,1.94,5,4.46Z"/><path class="cls-1" d="M80.83,53.77c0,2.52-2.3,4.46-5,4.46a4.91,4.91,0,0,1-5-4.46V39.94c0-4.39-2.66-6.69-5.62-6.69-3.16,0-5.68,1.94-5.68,6.84V53.77c0,2.52-2.31,4.46-5,4.46a4.92,4.92,0,0,1-5-4.46v-14c0-4.25-2.66-6.48-5.54-6.48S38,35,38,40.09V53.77c0,2.52-2.31,4.46-5,4.46a4.91,4.91,0,0,1-5-4.46V28.35a4.91,4.91,0,0,1,5-4.46c2.73,0,5,1.94,5,4.46v.79a9.62,9.62,0,0,1,8.78-5.54c5.33,0,8.86,1.73,11.09,6.34a10.84,10.84,0,0,1,9.79-6.41c8,0,13.11,5.11,13.18,15.26Z"/><path class="cls-1" d="M110.06,23.6c8.57,0,16.35,6.26,16.35,17.43s-7.78,17.49-16.35,17.49A11.92,11.92,0,0,1,100,53.12V69.83a4.91,4.91,0,0,1-5,4.46c-2.74,0-5-1.94-5-4.46V28.35c0-2.52,2.3-4.46,5-4.46a4.91,4.91,0,0,1,5,4.46V29A12.46,12.46,0,0,1,110.06,23.6Zm-1.94,9a8.5,8.5,0,0,0,0,17c5,0,7.92-4,7.92-8.49S113.16,32.6,108.12,32.6Z"/><path class="cls-1" d="M158.88,28.35a4.91,4.91,0,0,1,5-4.46c2.73,0,5,1.94,5,4.46V53.77c0,2.52-2.31,4.46-5,4.46a4.91,4.91,0,0,1-5-4.46v-.65a11.93,11.93,0,0,1-10.08,5.4c-8.57,0-16.35-6.33-16.35-17.49S140.23,23.6,148.8,23.6A12.46,12.46,0,0,1,158.88,29Zm-8.14,21.24a8.5,8.5,0,0,0,0-17c-5,0-7.92,4-7.92,8.5S145.7,49.59,150.74,49.59Z"/><path class="cls-1" d="M195,48.8a10.43,10.43,0,0,0,5-1.29c1.8-1,4.75-1.44,6.55.36a4.94,4.94,0,0,1-.65,7.34A18.67,18.67,0,0,1,195,58.52c-9.65,0-18.44-6.77-18.44-17.35V41c0-10.58,8.79-17.35,18.44-17.35a18.67,18.67,0,0,1,10.87,3.31,5,5,0,0,1,.65,7.35c-1.8,1.8-4.75,1.36-6.55.36a10.33,10.33,0,0,0-5-1.3c-4.32,0-8.21,3-8.21,7.63v.22C186.74,45.85,190.63,48.8,195,48.8Z"/><path class="cls-1" d="M218,24.25V15.46A4.91,4.91,0,0,1,223,11c2.73,0,5,1.94,5,4.46v8.79h3.81a3.79,3.79,0,0,1,3.6,4,3.88,3.88,0,0,1-3.6,4h-3.81v21.6c0,2.52-2.31,4.46-5,4.46a4.91,4.91,0,0,1-5-4.46V32.17h-2.74a3.88,3.88,0,0,1-3.6-4,3.79,3.79,0,0,1,3.6-4Z"/><path class="cls-1" d="M259.82,24.25a3.79,3.79,0,0,1,3.6,4,3.88,3.88,0,0,1-3.6,4h-3.46v21.6c0,2.52-2.3,4.46-5,4.46a4.91,4.91,0,0,1-5-4.46V32.17h-3.17a3.89,3.89,0,0,1-3.6-4,3.8,3.8,0,0,1,3.6-4h3.17V21.94c0-10.29,5.11-16,14.76-16h.87a4.6,4.6,0,0,1,4.61,4.61,4.74,4.74,0,0,1-4.61,4.6H261c-3.45,0-4.68,2.45-4.68,6.41v2.67Z"/><path class="cls-1" d="M291,53a11.17,11.17,0,0,1-9.73,5.54c-7.56,0-12.38-3.74-12.38-13.32V28.35c0-2.52,2.3-4.46,5-4.46a4.91,4.91,0,0,1,5,4.46V42.18c0,4.46,1.66,6.62,5.83,6.62,3.53,0,6.2-1.65,6.2-6.77V28.35c0-2.52,2.3-4.46,5-4.46a4.92,4.92,0,0,1,5,4.46V53.77a4.92,4.92,0,0,1-5,4.46c-2.74,0-5-1.94-5-4.46Z"/><path class="cls-1" d="M320.51,53.77c0,2.52-2.3,4.46-5,4.46a4.92,4.92,0,0,1-5-4.46V10.06a4.92,4.92,0,0,1,5-4.46c2.74,0,5,1.94,5,4.46Z"/><circle class="cls-1" cx="351.17" cy="52.05" r="5.23"/><circle class="cls-1" cx="363.45" cy="38.43" r="7.06"/><circle class="cls-1" cx="382.56" cy="19.32" r="13.08"/></svg>